#!OML:ASF H:\Dans Jumps\Project 1\Capture day 1\Session 1\subject.ASF
:FULLY-SPECIFIED
:DEGREES
155
root 0.582201 17.5985 -14.074 7.30732 -1.85675 -1.05344
lowerback -1.27011 -0.26131 -0.135669
upperback 3.99758 -0.405908 1.43674
thorax 4.84841 -0.23846 1.53885
lowerneck -12.7759 1.00299 -1.67839
upperneck 32.9096 1.6773 0.678981
head 13.1188 0.609797 0.804727
rclavicle 8.84592e-015 -2.98177e-015
rhumerus -20.9534 -9.19468 -83.5422
rradius 28.5773
rwrist 28.5196
rhand -18.006 -27.147
rfingers 7.12502
rthumb 8.26451 -56.9654
lclavicle 8.84592e-015 -2.98177e-015
lhumerus -18.9827 -8.59476 90.7402
lradius 24.3304
lwrist 5.32128
lhand -24.2422 -2.75352
lfingers 7.12502
lthumb 2.24343 27.2144
rfemur -16.0971 -2.43877 19.4073
rtibia 24.0658
rfoot -13.985 -4.0362
rtoes 12.1407
lfemur -14.4402 6.02101 -18.8782
ltibia 20.7012
lfoot -10.8623 7.40001
ltoes 5.91258
156
root 0.583812 17.5973 -14.0868 7.3608 -1.87138 -1.05846
lowerback -1.14444 -0.261664 -0.134908
upperback 4.04656 -0.406711 1.44939
thorax 4.82814 -0.239264 1.55189
lowerneck -12.7724 1.00995 -1.67085
upperneck 32.8182 1.6911 0.65816
head 13.0792 0.614969 0.796285
rclavicle -4.52235e-015 3.57812e-015
rhumerus -20.8307 -9.02227 -83.5989
rradius 28.6876
rwrist 28.4068
rhand -18.0329 -27.1204
rfingers 7.12502
rthumb 8.23859 -56.9398
lclavicle -4.52235e-015 3.57812e-015
lhumerus -18.9093 -8.74763 90.7849
lradius 24.4676
lwrist 5.45995
lhand -24.2575 -2.76778
lfingers 7.12502
lthumb 2.2287 27.2003
rfemur -16.258 -2.42346 19.4118
rtibia 24.1606
rfoot -13.9664 -4.03858
rtoes 12.1319
lfemur -14.6135 6.02076 -18.8889
ltibia 20.8287
lfoot -10.8629 7.4188
ltoes 5.90467
157
root 0.585402 17.596 -14.1004 7.42378 -1.88643 -1.06572
lowerback -1.01752 -0.2618 -0.132485
upperback 4.09621 -0.407291 1.46248
thorax 4.80787 -0.239908 1.56448
lowerneck -12.7741 1.01725 -1.65829
upperneck 32.7268 1.70573 0.632511
head 13.041 0.620479 0.785281
rclavicle -2.48481e-016 7.95139e-015
rhumerus -20.7056 -8.84993 -83.655
rradius 28.8013
rwrist 28.2952
rhand -18.0607 -27.0894
rfingers 7.12502
rthumb 8.21171 -56.9098
lclavicle -2.48481e-016 7.95139e-015
lhumerus -18.8297 -8.89775 90.825
lradius 24.5995
lwrist 5.59362
lhand -24.28 -2.79983
lfingers 7.12502
lthumb 2.2069 27.1685
rfemur -16.435 -2.40146 19.4194
rtibia 24.2605
rfoot -13.946 -4.04812
rtoes 12.1243
lfemur -14.8043 6.02016 -18.8983
ltibia 20.964
lfoot -10.8624 7.44017
ltoes 5.89381
158
root 0.587006 17.5947 -14.1146 7.49599 -1.90826 -1.07547
lowerback -0.890851 -0.25955 -0.129187
upperback 4.14707 -0.404751 1.47628
thorax 4.78892 -0.238997 1.57747
lowerneck -12.7736 1.02442 -1.64114
upperneck 32.6286 1.72053 0.601416
head 12.9995 0.625998 0.771316
rclavicle -1.78906e-015 4.57205e-015
rhumerus -20.5816 -8.67224 -83.7086
rradius 28.9219
rwrist 28.1743
rhand -18.087 -27.0581
rfingers 7.12502
rthumb 8.18634 -56.8795
lclavicle -1.78906e-015 4.57205e-015
lhumerus -18.7442 -9.04485 90.8602
lradius 24.7286
lwrist 5.72592
lhand -24.3039 -2.83653
lfingers 7.12502
lthumb 2.18385 27.132
rfemur -16.6285 -2.37068 19.4297
rtibia 24.3654
rfoot -13.9299 -4.06126
rtoes 12.1065
lfemur -15.0117 6.02426 -18.9069
ltibia 21.1074
lfoot -10.8611 7.46511
ltoes 5.87181
159
root 0.588675 17.5932 -14.1294 7.5766 -1.93167 -1.0858
lowerback -0.763469 -0.255743 -0.124435
upperback 4.19905 -0.400144 1.48936
thorax 4.77067 -0.236996 1.58902
lowerneck -12.7647 1.03022 -1.61947
upperneck 32.5155 1.73274 0.567341
head 12.9503 0.630732 0.754829
rclavicle -9.0447e-015 -1.17283e-014
rhumerus -20.4606 -8.4913 -83.759
rradius 29.0501
rwrist 28.0457
rhand -18.1096 -27.0362
rfingers 7.12502
rthumb 8.16459 -56.8585
lclavicle -9.0447e-015 -1.17283e-014
lhumerus -18.6552 -9.19338 90.8907
lradius 24.8557
lwrist 5.85865
lhand -24.3285 -2.86986
lfingers 7.12502
lthumb 2.16005 27.0989
rfemur -16.8366 -2.33717 19.4409
rtibia 24.4756
rfoot -13.9159 -4.07742
rtoes 12.0821
lfemur -15.2338 6.02823 -18.9161
ltibia 21.2563
lfoot -10.8589 7.49225
ltoes 5.85118
160
root 0.590442 17.5917 -14.1448 7.66264 -1.95709 -1.09765
lowerback -0.632892 -0.249618 -0.116746
upperback 4.25206 -0.392486 1.50193
thorax 4.75157 -0.233355 1.59852
lowerneck -12.7413 1.03401 -1.60193
upperneck 32.3844 1.7412 0.537533
head 12.8904 0.634114 0.739905
rclavicle 3.67752e-015 -6.95746e-015
rhumerus -20.3474 -8.31135 -83.805
rradius 29.1882
rwrist 27.9074
rhand -18.1253 -27.0167
rfingers 7.12502
rthumb 8.14944 -56.8395
lclavicle 3.67752e-015 -6.95746e-015
lhumerus -18.5682 -9.34412 90.9182
lradius 24.9845
lwrist 5.99137
lhand -24.3551 -2.89638
lfingers 7.12502
lthumb 2.13445 27.0727
rfemur -17.0555 -2.30071 19.4537
rtibia 24.5907
rfoot -13.904 -4.0948
rtoes 12.0521
lfemur -15.4665 6.03438 -18.9247
ltibia 21.4094
lfoot -10.8573 7.51849
ltoes 5.83992
161
root 0.592336 17.5902 -14.1606 7.75155 -1.98427 -1.10662
lowerback -0.496732 -0.242736 -0.110772
upperback 4.30555 -0.383656 1.51329
thorax 4.72978 -0.229165 1.60779
lowerneck -12.7061 1.03701 -1.5817
upperneck 32.2409 1.74814 0.505248
head 12.8231 0.637005 0.723153
rclavicle 1.98785e-015 -4.17448e-015
rhumerus -20.2419 -8.13475 -83.8472
rradius 29.3318
rwrist 27.7664
rhand -18.1365 -27.0022
rfingers 7.12502
rthumb 8.13855 -56.8255
lclavicle 1.98785e-015 -4.17448e-015
lhumerus -18.4866 -9.49015 90.9414
lradius 25.1167
lwrist 6.12075
lhand -24.3789 -2.92438
lfingers 7.12502
lthumb 2.11143 27.0449
rfemur -17.2817 -2.26643 19.4632
rtibia 24.7106
rfoot -13.894 -4.11015
rtoes 12.0117
lfemur -15.7049 6.04044 -18.9373
ltibia 21.565
lfoot -10.856 7.54491
ltoes 5.84182
